<svg width="28" height="29" viewBox="0 0 28 29" fill="none" xmlns="http://www.w3.org/2000/svg">
<path d="M5 5.0498C5 4.49752 5.44772 4.0498 6 4.0498H19C19.5523 4.0498 20 4.49752 20 5.0498V13.0514C16.6432 13.3106 14 16.121 14 19.5498C14 21.2949 14.6847 22.8799 15.7998 24.0498H6C5.44772 24.0498 5 23.6021 5 23.0498V5.0498ZM8 8.5498V9.5498C8 9.82595 8.22386 10.0498 8.5 10.0498H16.5C16.7761 10.0498 17 9.82595 17 9.5498V8.5498C17 8.27366 16.7761 8.0498 16.5 8.0498H8.5C8.22386 8.0498 8 8.27366 8 8.5498ZM8 12.5498V13.5498C8 13.8259 8.22386 14.0498 8.5 14.0498H13.5C13.7761 14.0498 14 13.8259 14 13.5498V12.5498C14 12.2737 13.7761 12.0498 13.5 12.0498H8.5C8.22386 12.0498 8 12.2737 8 12.5498Z" fill="#2354E6"/>
<path d="M20.5137 24.0498C22.999 24.0498 25.0137 22.0351 25.0137 19.5498C25.0137 17.0645 22.999 15.0498 20.5137 15.0498C18.0284 15.0498 16.0137 17.0645 16.0137 19.5498C16.0137 22.0351 18.0284 24.0498 20.5137 24.0498ZM21.0113 17.0831V19.367H22.9986C23.3852 19.367 23.6986 19.6804 23.6986 20.067C23.6986 20.4536 23.3852 20.767 22.9986 20.767H20.3113C19.9247 20.767 19.6113 20.4536 19.6113 20.067V17.0831C19.6113 16.6965 19.9247 16.3831 20.3113 16.3831C20.6979 16.3831 21.0113 16.6965 21.0113 17.0831Z" fill="#04D590"/>
</svg>
