<svg width="28" height="29" viewBox="0 0 28 29" fill="none" xmlns="http://www.w3.org/2000/svg">
<path fill-rule="evenodd" clip-rule="evenodd" d="M12.5 21.1367C12.56 21.1367 12.62 21.1361 12.6797 21.1349L12.6797 19.8745C12.6797 19.4464 12.8512 19.0362 13.1559 18.7355L16.6885 15.2501C17.6995 14.2525 19.4122 14.9687 19.4122 16.389V16.9943H19.7995C20.5619 15.7201 21 14.2296 21 12.6367C21 7.9423 17.1944 4.13672 12.5 4.13672C7.80558 4.13672 4 7.9423 4 12.6367C4 17.3311 7.80558 21.1367 12.5 21.1367ZM14.426 9.80386C15.4686 10.163 16.231 10.7013 16.0813 11.7028L16.0813 11.7027L16.0816 11.7029C15.9732 12.436 15.5668 12.7909 15.0272 12.9153C15.768 13.301 16.145 13.8925 15.7859 14.918C15.3402 16.1916 14.2814 16.2991 12.8733 16.0326L12.5316 17.4021L11.7057 17.1964L12.043 15.8452C11.8289 15.792 11.6103 15.7356 11.3849 15.6744L11.0465 17.032L10.2217 16.8262L10.5634 15.4541C10.484 15.4338 10.4042 15.413 10.3237 15.392C10.2086 15.362 10.0923 15.3317 9.97463 15.3022L8.9 15.0343L9.30999 14.089C9.30999 14.089 9.91846 14.2508 9.91019 14.2388C10.144 14.2967 10.2477 14.1442 10.2886 14.0426L10.8286 11.8776C10.8503 11.8829 10.8715 11.8882 10.8919 11.8933L10.9159 11.8992C10.8829 11.886 10.8531 11.8775 10.83 11.8717L11.2153 10.3262C11.2253 10.1508 11.1649 9.9294 10.8305 9.84594C10.8434 9.8373 10.2307 9.69686 10.2307 9.69686L10.4504 8.81486L11.5892 9.09924L11.5882 9.1035C11.7594 9.1461 11.9359 9.18652 12.1155 9.22743L12.4539 7.87129L13.2792 8.07706L12.9476 9.40664C13.1691 9.45721 13.3921 9.50823 13.6092 9.56238L13.9384 8.24152L14.7642 8.44728L14.426 9.80386ZM11.814 14.7224C12.4877 14.9003 13.9604 15.2893 14.1945 14.3485H14.1946C14.4344 13.3866 13.0065 13.0661 12.3095 12.9097C12.2316 12.8922 12.1628 12.8768 12.1065 12.8627L11.653 14.6806C11.6991 14.692 11.7531 14.7063 11.8136 14.7223L11.8139 14.7224L11.814 14.7224ZM12.4493 12.066C13.0111 12.216 14.2365 12.543 14.4499 11.6879H14.45C14.6679 10.8134 13.477 10.5497 12.8953 10.4209C12.8299 10.4064 12.7722 10.3937 12.7251 10.3819L12.3139 12.0306C12.3527 12.0403 12.3983 12.0524 12.4493 12.066Z" fill="#2354E6"/>
<path fill-rule="evenodd" clip-rule="evenodd" d="M14.3444 20.1149C14.0878 20.3654 14.2652 20.8011 14.6238 20.8011H24.1063C24.3272 20.8011 24.5063 20.622 24.5063 20.4011V18.9241C24.5063 18.7032 24.3272 18.5241 24.1063 18.5241L17.8223 18.5241V17.6685C17.8223 17.3144 17.3962 17.135 17.1428 17.3823L14.3444 20.1149ZM24.6391 22.5228C24.8957 22.2723 24.7183 21.8366 24.3596 21.8366L14.8772 21.8366C14.6563 21.8366 14.4772 22.0157 14.4772 22.2366L14.4772 23.7136C14.4772 23.9345 14.6563 24.1136 14.8772 24.1136L21.1612 24.1136V24.9692C21.1612 25.3233 21.5873 25.5027 21.8406 25.2554L24.6391 22.5228Z" fill="#04D590"/>
</svg>
