<svg width="28" height="28" viewBox="0 0 28 28" fill="none" xmlns="http://www.w3.org/2000/svg">
<rect x="21" y="15" width="3" height="9" rx="1" fill="#04D590"/>
<path d="M6.56413 8.94233C6.53468 8.91857 6.5057 8.89422 6.47717 8.86929C6.46379 8.85759 6.4505 8.84576 6.43732 8.83381L6.42848 8.82576C5.67631 8.13795 5.2584 7.0316 5.16067 5.55811C4.24606 5.92175 2.9834 6.56549 2.9834 8.83381C2.9834 9.52871 3.14008 10.205 3.40087 10.8198C3.81968 11.807 4.50701 12.6354 5.24518 13.1268C5.49443 13.2928 5.74949 13.4203 6.00195 13.5026V22.9997C6.00195 23.552 6.44967 23.9997 7.00195 23.9997H18.002C18.5542 23.9997 19.002 23.552 19.002 22.9997V13.4965C19.2484 13.4141 19.497 13.2887 19.7402 13.1268C20.4783 12.6354 21.1657 11.807 21.5845 10.8198C21.8453 10.205 22.002 9.52871 22.002 8.83381C22.002 6.56549 20.7393 5.92175 19.8247 5.55811C19.727 7.0316 19.309 8.13795 18.5569 8.82576L18.548 8.83381C18.5348 8.84576 18.5216 8.85759 18.5082 8.86929C18.4797 8.89422 18.4507 8.91857 18.4212 8.94233C18.017 9.26853 17.5253 9.48473 16.9443 9.58408H8.04101C7.46004 9.48473 6.96837 9.26853 6.56413 8.94233ZM9.00098 14.4999C9.00098 14.2238 9.22483 13.9999 9.50098 13.9999H15.501C15.7771 13.9999 16.001 14.2238 16.001 14.4999V15.4999C16.001 15.776 15.7771 15.9999 15.501 15.9999H9.50098C9.22483 15.9999 9.00098 15.776 9.00098 15.4999V14.4999ZM9.50098 17.9999H12.501C12.7771 17.9999 13.001 18.2238 13.001 18.4999V19.4999C13.001 19.776 12.7771 19.9999 12.501 19.9999H9.50098C9.22483 19.9999 9.00098 19.776 9.00098 19.4999V18.4999C9.00098 18.2238 9.22483 17.9999 9.50098 17.9999Z" fill="#2354E6"/>
</svg>
