<svg width="28" height="28" viewBox="0 0 28 28" fill="none" xmlns="http://www.w3.org/2000/svg">
<path fill-rule="evenodd" clip-rule="evenodd" d="M22.9712 14.3312C22.3538 14.1166 21.6906 14 21.0002 14C17.7465 14 15.0977 16.5899 15.0028 19.8206L12.0203 19.8206V21.0001C12.0203 21.5523 11.5726 22.0001 11.0203 22.0001H9.34853C8.79625 22.0001 8.34853 21.5523 8.34853 21.0001V19.3529C8.34853 19.3529 6.64669 18.5501 6.14516 17.6985C5.67767 16.9046 5.53226 15.3822 5.53226 15.3822H5C4.44772 15.3822 4 14.9345 4 14.3822V12.4115C4 11.8592 4.44772 11.4115 5 11.4115H5.53226C5.53226 11.4115 5.63025 9.85415 6.14516 9.09528C6.56903 8.04801 7.98387 7.09478 7.98387 7.09478V4.87414C7.98387 4.26123 8.67223 3.90053 9.17619 4.24939L11.8745 6.11723C11.8745 6.11723 15.5766 6.01026 17.9083 6.24448C20.2399 6.4787 23 7.77169 23 13.3969C23 13.7261 22.99 14.0373 22.9712 14.3312ZM14.0261 9.07798H12.8907V9.65528C11.9779 9.68852 11.2479 10.4501 11.2479 11.3847C11.2479 12.303 11.9527 13.0543 12.8433 13.1117V13.1153H13.9642C14.2787 13.1153 14.5337 13.3741 14.5337 13.6934C14.5337 14.0127 14.2787 14.2715 13.9642 14.2715H11.7623V15.4239H12.8907V16H14.0261V15.4228C14.939 15.3897 15.6691 14.6281 15.6691 13.6934C15.6691 12.7376 14.9058 11.9628 13.9642 11.9628L12.9529 11.9628C12.6383 11.9628 12.3833 11.704 12.3833 11.3847C12.3833 11.0654 12.6383 10.8066 12.9529 10.8066H15.1607V9.65415H14.0261V9.07798Z" fill="#2354E6"/>
<path fill-rule="evenodd" clip-rule="evenodd" d="M21.0001 24C23.2093 24 25.0001 22.2091 25.0001 20C25.0001 17.7909 23.2093 16 21.0001 16C18.791 16 17.0001 17.7909 17.0001 20C17.0001 22.2091 18.791 24 21.0001 24ZM21.3538 18.3536C21.1585 18.1583 20.8419 18.1583 20.6467 18.3536L19.3538 19.6464C19.1585 19.8417 19.1585 20.1583 19.3538 20.3535L20.6467 21.6464C20.8419 21.8417 21.1585 21.8417 21.3538 21.6464L22.6466 20.3535C22.8419 20.1583 22.8419 19.8417 22.6466 19.6464L21.3538 18.3536Z" fill="#04D590"/>
</svg>
