<svg width="28" height="29" viewBox="0 0 28 29" fill="none" xmlns="http://www.w3.org/2000/svg">
<path fill-rule="evenodd" clip-rule="evenodd" d="M15.3999 22.7031C14.6359 22.9139 13.8311 23.0266 13 23.0266C8.02944 23.0266 4 18.9971 4 14.0266C4 9.056 8.02944 5.02657 13 5.02657C17.9706 5.02657 22 9.056 22 14.0266C22 14.8397 21.8922 15.6276 21.6901 16.3768H17.3999C16.2953 16.3768 15.3999 17.2722 15.3999 18.3768V22.7031ZM13.7392 10.8628L15.4261 13.7845L10.6765 15.7417L11.8021 13.7921C11.956 13.5254 11.7636 13.1921 11.4557 13.1921H8.41055C8.10263 13.1921 7.91018 13.5254 8.06414 13.7921L9.47548 16.2366L8.83435 16.5008C8.52797 16.6271 8.38195 16.9778 8.5082 17.2842C8.63445 17.5905 8.98517 17.7366 9.29155 17.6103L17.7052 14.1432C18.0116 14.017 18.1576 13.6663 18.0313 13.3599C17.9051 13.0535 17.5544 12.9075 17.248 13.0337L16.7535 13.2375L18.1246 10.8628C18.2785 10.5961 18.0861 10.2628 17.7782 10.2628H14.0856C13.7777 10.2628 13.5852 10.5961 13.7392 10.8628Z" fill="#2354E6"/>
<path d="M17 18.9766C17 18.4243 17.4477 17.9766 18 17.9766H23C23.5523 17.9766 24 18.4243 24 18.9766V19.9766C24 20.5288 23.5523 20.9766 23 20.9766H18C17.4477 20.9766 17 20.5288 17 19.9766V18.9766Z" fill="#04D590"/>
<path d="M17 22.9766C17 22.4243 17.4477 21.9766 18 21.9766H23C23.5523 21.9766 24 22.4243 24 22.9766V23.9766C24 24.5288 23.5523 24.9766 23 24.9766H18C17.4477 24.9766 17 24.5288 17 23.9766V22.9766Z" fill="#04D590"/>
</svg>
