<svg width="28" height="29" viewBox="0 0 28 29" fill="none" xmlns="http://www.w3.org/2000/svg">
<path d="M5 5.97656C5 5.42428 5.44772 4.97656 6 4.97656H19C19.5523 4.97656 20 5.42428 20 5.97656V13.9781C16.6432 14.2374 14 17.0478 14 20.4765C14 22.2217 14.6847 23.8066 15.7998 24.9766H6C5.44772 24.9766 5 24.5288 5 23.9766V5.97656ZM8 9.47656V10.4766C8 10.7527 8.22386 10.9766 8.5 10.9766H16.5C16.7761 10.9766 17 10.7527 17 10.4766V9.47656C17 9.20042 16.7761 8.97656 16.5 8.97656H8.5C8.22386 8.97656 8 9.20042 8 9.47656ZM8 13.4766V14.4766C8 14.7527 8.22386 14.9766 8.5 14.9766H13.5C13.7761 14.9766 14 14.7527 14 14.4766V13.4766C14 13.2004 13.7761 12.9766 13.5 12.9766H8.5C8.22386 12.9766 8 13.2004 8 13.4766Z" fill="#2354E6"/>
<path d="M20.5137 24.9765C22.999 24.9765 25.0137 22.9618 25.0137 20.4766C25.0137 17.9913 22.999 15.9766 20.5137 15.9766C18.0284 15.9766 16.0137 17.9913 16.0137 20.4766C16.0137 22.9618 18.0284 24.9765 20.5137 24.9765ZM20.8831 18.0101L21.4116 19.2809L22.7835 19.3909C23.1382 19.4193 23.282 19.8619 23.0118 20.0934L21.9665 20.9887L22.2859 22.3275C22.3684 22.6736 21.9919 22.9471 21.6883 22.7616L20.5137 22.0442L19.3392 22.7616C19.0356 22.9471 18.6591 22.6736 18.7416 22.3275L19.061 20.9887L18.0157 20.0934C17.7455 19.8619 17.8893 19.4193 18.244 19.3909L19.6159 19.2809L20.1444 18.0101C20.2811 17.6816 20.7464 17.6816 20.8831 18.0101Z" fill="#04D590"/>
</svg>
