<svg t="1681739470009" class="icon" viewBox="0 0 1024 1024" version="1.1" xmlns="http://www.w3.org/2000/svg" p-id="18115" width="200" height="200"><path d="M146.285714 256a36.571429 36.571429 0 0 1 36.571429-36.571429h658.285714a36.571429 36.571429 0 0 1 36.571429 36.571429v240.786286A237.714286 237.714286 0 0 0 537.965714 768H256a109.714286 109.714286 0 0 1-109.714286-109.714286V256z m124.342857 73.142857a14.628571 14.628571 0 0 0-14.628571 14.628572v43.885714c0 8.045714 6.582857 14.628571 14.628571 14.628571h263.314286a14.628571 14.628571 0 0 0 14.628572-14.628571V343.771429a14.628571 14.628571 0 0 0-14.628572-14.628572H270.628571z m0 146.285714a14.628571 14.628571 0 0 0-14.628571 14.628572v43.885714c0 8.045714 6.582857 14.628571 14.628571 14.628572h117.028572a14.628571 14.628571 0 0 0 14.628571-14.628572v-43.885714a14.628571 14.628571 0 0 0-14.628571-14.628572H270.628571z" fill="#2354E6" p-id="18116"></path><path d="M768 866.084571a158.464 158.464 0 1 0 0-316.928 158.464 158.464 0 0 0 0 316.928z m10.349714-227.364571l58.550857 58.550857a14.628571 14.628571 0 0 1 0 20.699429l-58.550857 58.514285a14.628571 14.628571 0 0 1-20.699428 0l-58.514286-58.514285a14.628571 14.628571 0 0 1 0-20.699429l58.514286-58.550857a14.628571 14.628571 0 0 1 20.699428 0z" fill="#04D590" p-id="18117"></path></svg>