<svg width="28" height="29" viewBox="0 0 28 29" fill="none" xmlns="http://www.w3.org/2000/svg">
<path fill-rule="evenodd" clip-rule="evenodd" d="M6 6.97344C6 6.3107 6.53726 5.77344 7.2 5.77344H17.8C18.4627 5.77344 19 6.3107 19 6.97344V16.565L18.2223 17.4394L17.7336 16.995C16.9168 16.2522 15.6526 16.3117 14.9093 17.128L8.85761 23.7734H7.2C6.53726 23.7734 6 23.2362 6 22.5734V6.97344ZM8.4 8.77339C8.17909 8.77339 8 8.95247 8 9.17339V10.3734C8 10.5943 8.17909 10.7734 8.4 10.7734H12.6C12.8209 10.7734 13 10.5943 13 10.3734V9.17339C13 8.95247 12.8209 8.77339 12.6 8.77339H8.4ZM8.39995 11.8233C8.17904 11.8233 7.99995 12.0024 7.99995 12.2233V13.4233C7.99995 13.6443 8.17904 13.8233 8.39995 13.8233H10.6C10.8209 13.8233 11 13.6443 11 13.4233V12.2233C11 12.0024 10.8209 11.8233 10.6 11.8233H8.39995Z" fill="#2354E6"/>
<path d="M17.4202 21.9735L15.9734 21.9735L16.5725 21.3599L16.7653 21.5392L17.991 20.221L16.7653 21.5392C16.9642 21.7241 17.1858 21.8687 17.4202 21.9735ZM21.2407 21.9734L19.3787 21.9734C19.6914 21.834 19.9794 21.6249 20.2182 21.3476L21.2296 20.173L21.2407 21.9734Z" stroke="#04D590" stroke-width="3.6"/>
</svg>
